<svg width="93" height="105" viewBox="0 0 93 105" fill="none" xmlns="http://www.w3.org/2000/svg">
<path fill-rule="evenodd" clip-rule="evenodd" d="M15.5188 0.726503C11.1677 2.52336 13.545 8.33568 21.2862 14.8285L29.2161 21.479L21.8645 24.4206C17.8216 26.0385 11.9902 30.1815 8.90477 33.6264C-3.52858 47.5121 -2.81003 80.5201 10.2345 94.7319C23.3829 109.055 69.0804 108.205 83.9152 93.3604C90.37 86.9013 93 77.6742 93 61.4865C93 39.2172 85.6795 28.9411 66.4521 24.2203L57.795 22.0956L63.4896 17.3377C67.9411 13.6199 68.9246 11.7362 67.9913 8.72376C66.227 3.03903 61.5106 3.99948 52.0986 11.9578C47.4895 15.8563 43.3082 19.0459 42.8078 19.0459C42.3074 19.0459 36.9833 14.6601 30.9787 9.29968C19.9218 -0.568864 19.3816 -0.868341 15.5188 0.726503ZM69.5756 36.5609C74.3162 38.7068 78.1946 42.0241 79.8914 45.3839C83.5412 52.605 83.5412 74.0893 79.8914 81.3104C72.5294 95.882 31.2072 99.6813 18.251 86.9775C4.12951 73.1307 9.99384 37.734 27.0449 33.917C29.5139 33.3641 32.3136 32.5933 33.2659 32.2016C37.636 30.4083 62.6083 33.4066 69.5756 36.5609ZM35.7366 49.2505C30.8679 52.3303 38.732 79.2956 44.4994 79.2956C48.6167 79.2956 60.5064 69.7779 63.9796 63.7016C66.3898 59.4877 66.5508 58.0594 64.7899 56.562C59.3498 51.9423 39.4142 46.9238 35.7366 49.2505Z" fill="#3B82F6"/>
</svg>
